<svg xmlns="http://www.w3.org/2000/svg" xml:space="preserve" width="2000" height="1500" data-id="lg_v1RUZ8ufFy9KQwNqUs" data-version="1" viewBox="0 0 2000 1500"><path fill="#fff" stroke="transparent" d="M0 0h2000v1500H0z"/><g data-padding="20"><g transform="translate(-992.397 -727.432)scale(1.89817)"><g transform="translate(399.86 657.34)"><filter id="a" width="146%" height="194%" x="-23%" y="-47%"><feGaussianBlur in="SourceAlpha" stdDeviation="5"/><feOffset dx="2" dy="2" result="oBlur"/><feFlood flood-color="#fff" flood-opacity="0"/><feComposite in2="oBlur" operator="in"/><feMerge><feMergeNode/><feMergeNode in="SourceGraphic"/></feMerge></filter><g filter="url(#a)"><rect width="178.567" height="21.967" x="240.553" y="181.321" fill="none" rx="0" ry="0" transform="scale(1.97)"/><path fill="#1ebbd7" d="m482.18 360.311-4 12h1.87l1.05-3.33h4.76l1.05 3.33h1.88l-4.01-12Zm3.37 7.45h-4.13l2.06-6.37h.02Zm4.92-9.37v13.92h1.8v-13.92Zm4.12 0v13.92h1.8v-13.92Zm3.6 9.07v1.2h5.94v-1.2Zm7.97-5.68v10.52h1.8v-10.52Zm1.8-2.87h-1.8v1.59h1.8Zm2.28 2.89v10.51h1.79v-8.48l-.38-2.03Zm6.59 4.51v6h1.79v-6.01q0-2.15-.76-3.38-.76-1.22-2.58-1.22-1.84 0-3 1.14-1.17 1.14-1.17 2.44l.87.55q0-1.24.77-2.06t1.88-.82 1.65.77q.55.76.55 2.59m3.43 1.15v1.2h5.95v-1.2Zm12.56 4.94q2.64 0 3.88-1.46 1.25-1.46 1.25-4.62 0-3.15-1.25-4.62-1.24-1.46-3.88-1.46-2.65 0-3.88 1.46t-1.23 4.62 1.23 4.62q1.24 1.46 3.88 1.46m0-1.26q-1.46 0-2.38-.95-.93-.95-.93-3.87 0-2.93.93-3.88.92-.94 2.38-.94 1.47 0 2.39.94.93.95.93 3.88 0 2.92-.93 3.87-.92.95-2.39.95m6.78-9.34v10.51h1.79v-8.48l-.38-2.03Zm6.59 4.51v6h1.79v-6.01q0-2.15-.76-3.38-.76-1.22-2.58-1.22-1.84 0-3 1.14-1.17 1.14-1.17 2.44l.87.55q0-1.24.77-2.06t1.88-.82 1.65.77q.55.76.55 2.59m8.03 6.09v-1.19q-1.35 0-2.1-.99-.76-.96-.76-3.19 0-2.35.79-3.25.78-.9 2.04-.9 1.31 0 2.03.85.63.8.71 2.74h-5.77v1.11h7.54q.03-.26.03-.57 0-2.64-1.04-3.98-1.06-1.33-3.5-1.33-2.36 0-3.46 1.33-1.11 1.33-1.11 4 0 2.52 1.08 3.95 1.07 1.42 3.52 1.42m0-1.19v1.19q1.33 0 2.2-.35t1.42-1.11q.54-.75.69-1.83l-1.61-.44q-.15.78-.46 1.4-.32.62-.89.88-.58.26-1.35.26m15.08 1.17q2.61 0 3.62-.99 1.02-.98 1.02-2.41 0-1.52-.94-2.14-.93-.62-3.19-1.17-1.61-.4-2.52-.84-.91-.45-.91-1.49 0-.81.75-1.33.74-.52 2.13-.52 1.36 0 2.11.6.74.61.74 2.58h1.82q0-2.26-1.02-3.34-1.01-1.09-3.64-1.09-2.57 0-3.6.97-1.04.96-1.04 2.33 0 1.5.94 2.16.95.67 3.14 1.21 1.64.39 2.54.82t.9 1.5q0 .88-.74 1.39t-2.13.51-2.12-.61q-.72-.62-.72-2.65h-1.82q0 2.39 1.01 3.45 1 1.06 3.67 1.06m10.75-.01q2.36 0 3.49-1.31t1.13-4.05-1.13-4.03q-1.13-1.3-3.49-1.3-2.35 0-3.48 1.3-1.13 1.29-1.13 4.03t1.13 4.05 3.48 1.31m0-1.23q-1.23 0-2.03-.87-.79-.86-.79-3.25 0-2.38.79-3.24.8-.86 2.03-.86 1.24 0 2.03.86.8.86.8 3.24 0 2.39-.8 3.25-.79.87-2.03.87m6.58-12.75v13.92h1.8v-13.92Zm10.42 12.13.4 1.78h1.39v-10.51h-1.79Zm-4.84-2.74v-6h-1.79v6.07q0 2.14.75 3.34t2.59 1.2q1.91 0 3.04-1.14 1.13-1.15 1.13-2.44l-.87-.52q0 1.24-.78 2.04-.77.81-1.89.81-1.11 0-1.65-.77-.53-.76-.53-2.59m13.19 4.64q.97 0 1.86-.22v-1.21q-.61.2-1.26.2-.73 0-1.12-.31-.4-.31-.4-1.28v-6.54h3.47v-1.26h-3.47v-2.37h-1.8v2.37h-2.46v1.26h2.46v6.96q0 1.38.78 1.89t1.94.51m4.39-10.64v10.52h1.8v-10.52Zm1.8-2.87h-1.8v1.59h1.8Zm6.56 13.46q2.36 0 3.49-1.31t1.13-4.05-1.13-4.03q-1.13-1.3-3.49-1.3-2.34 0-3.48 1.3-1.13 1.29-1.13 4.03t1.13 4.05q1.14 1.31 3.48 1.31m0-1.23q-1.23 0-2.03-.87-.79-.86-.79-3.25 0-2.38.79-3.24.8-.86 2.03-.86 1.24 0 2.03.86.8.86.8 3.24 0 2.39-.8 3.25-.79.87-2.03.87m6.37-9.34v10.51h1.79v-8.48l-.38-2.03Zm6.59 4.51v6h1.79v-6.01q0-2.15-.76-3.38-.76-1.22-2.58-1.22-1.84 0-3 1.14-1.17 1.14-1.17 2.44l.87.55q0-1.24.77-2.06t1.88-.82 1.65.77q.55.76.55 2.59m8.04 6.06q2.07 0 3.15-.71t1.08-2.16q0-1.58-1.08-2.18-1.09-.6-2.69-.93-1.36-.31-2.24-.64-.88-.34-.88-1.26 0-.74.58-1.17.58-.44 1.78-.44 1.24 0 1.96.61.72.6.87 1.76l1.59-.54q-.26-1.61-1.37-2.31t-3.04-.7-3.04.72q-1.11.71-1.11 2.08 0 1.49 1.01 2.14 1.01.64 2.61.99 1.41.31 2.34.65t.93 1.34q0 .7-.6 1.13-.61.43-1.83.43-1.28 0-2.04-.58-.76-.57-.91-1.9l-1.59.54q.28 1.76 1.45 2.45 1.17.68 3.07.68m11.94-9.33v9.26h1.79v-9.26h3v-1.25h-3v-.65q0-.99.75-1.31.76-.32 2.1-.32h.27v-1.2h-.3q-2.1 0-3.36.62-1.25.63-1.25 2.2v.66h-2.14v1.25Zm10.91 9.33q2.36 0 3.49-1.31t1.13-4.05-1.13-4.03q-1.13-1.3-3.49-1.3-2.35 0-3.48 1.3-1.14 1.29-1.14 4.03t1.14 4.05q1.13 1.31 3.48 1.31m0-1.23q-1.23 0-2.03-.87-.8-.86-.8-3.25 0-2.38.8-3.24t2.03-.86 2.03.86.8 3.24q0 2.39-.8 3.25-.8.87-2.03.87m12.62-4.44h1.8q0-2.6-.7-3.79-.7-1.2-2.49-1.2-1.73 0-2.76.95t-1.03 2.3l.69.5q0-.96.66-1.73.65-.77 1.8-.77 1 0 1.52.79.51.78.51 2.95m-6.27-4.9v10.51h1.79v-8.48l-.38-2.03Zm14.27-1.47v11.97h7.94v-1.26h-6.12v-4.27h5.74v-1.19h-5.74v-3.99h6.12v-1.26Zm9.29 1.46 3.32 10.52h2.46l3.34-10.52h-1.88l-2.67 9.27h-.02l-2.66-9.27Zm14.84 10.61v-1.19q-1.35 0-2.1-.99-.76-.96-.76-3.19 0-2.35.79-3.25.78-.9 2.05-.9 1.3 0 2.03.85.63.8.7 2.74h-5.77v1.11h7.54q.03-.26.03-.57 0-2.64-1.04-3.98-1.06-1.33-3.49-1.33-2.37 0-3.47 1.33-1.11 1.33-1.11 4 0 2.52 1.08 3.95 1.08 1.42 3.52 1.42m0-1.19v1.19q1.33 0 2.2-.35t1.42-1.11q.54-.75.69-1.83l-1.61-.44q-.15.78-.45 1.4-.32.62-.9.88t-1.35.26m12.59-4.51h1.79q0-2.6-.69-3.79-.7-1.2-2.49-1.2-1.74 0-2.77.95t-1.03 2.3l.7.5q0-.96.65-1.73.66-.77 1.8-.77 1 0 1.52.79.52.78.52 2.95m-6.28-4.9v10.51h1.79v-8.48l-.38-2.03Zm9.42-.01 3.07 10.51h2.73l3.05-10.51h-1.88l-2.53 9.27h-.02l-2.55-9.27Zm.42 13.36v1.23q2.04 0 3.35-.81 1.32-.81 2.03-3.27h-1.66q-.51 1.73-1.36 2.29t-2.36.56m14.07-14.82v11.97h6.45q1.71 0 2.23-.97t.52-2.46q0-1.32-.58-2.16-.57-.83-1.52-.88.91-.05 1.39-.85t.48-1.92q0-1.08-.51-1.91-.51-.82-2.28-.82Zm5.99 10.71h-4.18v-4.62h3.82q1 0 1.37.6.38.6.38 1.67 0 1.15-.31 1.75-.3.6-1.08.6m-.46-5.75h-3.72v-3.71h3.92q.82 0 1.12.46.29.45.29 1.27 0 .88-.36 1.43-.35.55-1.25.55m12.14 5.23.4 1.78h1.39v-10.51h-1.79Zm-4.84-2.74v-6h-1.79v6.07q0 2.14.75 3.34t2.59 1.2q1.92 0 3.05-1.14 1.13-1.15 1.13-2.44l-.88-.52q0 1.24-.78 2.04-.77.81-1.89.81-1.11 0-1.64-.77-.54-.76-.54-2.59m12.98 4.59q2.07 0 3.15-.71 1.09-.71 1.09-2.16 0-1.58-1.09-2.18t-2.69-.93q-1.36-.31-2.24-.64-.88-.34-.88-1.26 0-.74.58-1.17.58-.44 1.78-.44 1.24 0 1.96.61.72.6.87 1.76l1.59-.54q-.26-1.61-1.37-2.31t-3.04-.7-3.04.72q-1.1.71-1.1 2.08 0 1.49 1 2.14 1.01.64 2.61.99 1.41.31 2.34.65t.93 1.34q0 .7-.6 1.13-.61.43-1.83.43-1.28 0-2.04-.58-.76-.57-.91-1.9l-1.58.54q.27 1.76 1.44 2.45 1.17.68 3.07.68m6.26-10.59v10.52h1.8v-10.52Zm1.8-2.87h-1.8v1.59h1.8Zm2.28 2.89v10.51h1.79v-8.48l-.38-2.03Zm6.58 4.51v6h1.79v-6.01q0-2.15-.75-3.38-.76-1.22-2.59-1.22t-3 1.14-1.17 2.44l.87.55q0-1.24.77-2.06.78-.82 1.88-.82 1.11 0 1.66.77.54.76.54 2.59m8.03 6.09v-1.19q-1.34 0-2.1-.99-.76-.96-.76-3.19 0-2.35.79-3.25.78-.9 2.05-.9 1.3 0 2.03.85.63.8.7 2.74h-5.76v1.11h7.53q.04-.26.04-.57 0-2.64-1.05-3.98-1.05-1.33-3.49-1.33-2.37 0-3.47 1.33-1.11 1.33-1.11 4 0 2.52 1.08 3.95 1.08 1.42 3.52 1.42m0-1.19v1.19q1.33 0 2.2-.35t1.42-1.11q.54-.75.69-1.83l-1.61-.44q-.15.78-.45 1.4-.32.62-.9.88-.57.26-1.35.26m10.63 1.16q2.08 0 3.16-.71t1.08-2.16q0-1.58-1.09-2.18-1.08-.6-2.69-.93-1.35-.31-2.23-.64-.89-.34-.89-1.26 0-.74.58-1.17.59-.44 1.78-.44 1.24 0 1.97.61.72.6.87 1.76l1.59-.54q-.26-1.61-1.37-2.31-1.12-.7-3.04-.7-1.93 0-3.04.72-1.11.71-1.11 2.08 0 1.49 1.01 2.14 1 .64 2.61.99 1.41.31 2.34.65t.93 1.34q0 .7-.61 1.13t-1.82.43q-1.29 0-2.04-.58-.76-.57-.91-1.9l-1.59.54q.28 1.76 1.45 2.45 1.17.68 3.06.68m10.3 0q2.08 0 3.16-.71t1.08-2.16q0-1.58-1.09-2.18-1.08-.6-2.69-.93-1.35-.31-2.23-.64-.89-.34-.89-1.26 0-.74.58-1.17.59-.44 1.78-.44 1.24 0 1.97.61.72.6.87 1.76l1.59-.54q-.26-1.61-1.37-2.31-1.12-.7-3.04-.7-1.93 0-3.04.72-1.11.71-1.11 2.08 0 1.49 1.01 2.14 1 .64 2.61.99 1.41.31 2.34.65t.93 1.34q0 .7-.61 1.13t-1.82.43q-1.29 0-2.04-.58-.76-.57-.91-1.9l-1.59.54q.28 1.76 1.45 2.45 1.17.68 3.06.68m-256.35 11.2v11.97h1.8v-10.66h.04l5.56 10.66h2.87v-11.97h-1.81l-.01 10.57h-.03l-5.53-10.57Zm16.64 12.07v-1.19q-1.35 0-2.1-.99-.76-.96-.76-3.19 0-2.35.79-3.25.78-.9 2.04-.9 1.31 0 2.03.86.63.79.7 2.73h-5.76v1.11h7.54q.03-.26.03-.57 0-2.64-1.04-3.98-1.06-1.33-3.5-1.33-2.36 0-3.46 1.33-1.11 1.33-1.11 4 0 2.52 1.08 3.95 1.07 1.42 3.52 1.42m0-1.19v1.19q1.33 0 2.2-.35t1.42-1.11q.54-.75.69-1.83l-1.61-.44q-.16.78-.46 1.4-.32.62-.89.88-.58.26-1.35.26m10.61 1.19v-1.19q-1.35 0-2.1-.99-.76-.96-.76-3.19 0-2.35.79-3.25.78-.9 2.05-.9 1.3 0 2.03.86.62.79.7 2.73h-5.77v1.11h7.54q.03-.26.03-.57 0-2.64-1.04-3.98-1.06-1.33-3.49-1.33-2.37 0-3.47 1.33-1.11 1.33-1.11 4 0 2.52 1.08 3.95 1.08 1.42 3.52 1.42m0-1.19v1.19q1.33 0 2.2-.35t1.42-1.11q.54-.75.69-1.83l-1.61-.44q-.15.78-.46 1.4t-.89.88-1.35.26m13.11-.64.11 1.73h1.67v-13.92h-1.78Zm-3.33 1.8q1.72 0 2.91-.87 1.19-.86 1.19-1.79l-.77-.97q0 .92-.81 1.65-.8.73-1.92.73-1.18 0-1.88-.87-.69-.86-.69-3.22t.69-3.22q.7-.86 1.88-.86 1.12 0 1.92.72.81.72.81 1.63l.77-.94q0-.94-1.19-1.8t-2.91-.86q-1.89 0-2.83 1.32-.95 1.32-.95 4 0 2.69.95 4.02.94 1.33 2.83 1.33"/></g></g><rect width="324.461" height="113" x="487.55" y="322.341" fill="none" rx="0" ry="0" transform="translate(399.81 580.16)"/><path fill="#1ebbd7" d="M897.6 990.411v-71.38h20.21q13.38 0 20.12 4 6.74 4.01 6.74 13.62 0 4.15-1.59 7.45t-4.61 5.44q-3.03 2.15-7.48 2.98v.49q4.69.73 8.31 2.69 3.61 1.95 5.66 5.47 2.05 3.51 2.05 8.93 0 6.59-3.05 11.13-3.05 4.55-8.62 6.86-5.57 2.32-13.18 2.32Zm8.3-64.3v23.53h13.67q9.32 0 12.91-3.07 3.59-3.08 3.59-8.99 0-6.1-4.27-8.79-4.27-2.68-13.6-2.68Zm14.11 30.51H905.9v26.71h14.84q9.52 0 13.48-3.73 3.95-3.74 3.95-10.08 0-4.06-1.78-6.94t-5.76-4.42-10.62-1.54m40.97-19.72h8.1v53.51h-8.1Zm4.15-20.02q2 0 3.44 1.29 1.44 1.3 1.44 4.03 0 2.69-1.44 4.01-1.44 1.31-3.44 1.31-2.1 0-3.5-1.31-1.39-1.32-1.39-4.01 0-2.73 1.39-4.03 1.4-1.29 3.5-1.29m55.47 67.24v6.29h-39.01v-5.37l29.35-41.79h-27.49v-6.35h36.52v6l-28.96 41.22Zm75.64-29.5q0 8.25-2.1 15.02-2.1 6.76-6.23 11.62-4.12 4.86-10.23 7.49-6.1 2.64-14.16 2.64-8.3 0-14.47-2.64-6.18-2.63-10.26-7.52-4.07-4.88-6.1-11.67-2.03-6.78-2.03-15.03 0-10.94 3.62-19.19 3.61-8.26 10.96-12.85t18.43-4.59q10.6 0 17.85 4.55 7.25 4.54 10.98 12.76 3.74 8.23 3.74 19.41m-56.84 0q0 9.09 2.59 15.73t7.94 10.25q5.34 3.61 13.59 3.61 8.3 0 13.6-3.61t7.84-10.25 2.54-15.73q0-13.82-5.79-21.6-5.78-7.79-18.04-7.79-8.3 0-13.67 3.56-5.37 3.57-7.98 10.13-2.62 6.57-2.62 15.7m96.63-18.7q10.01 0 15.97 6.89 5.96 6.88 5.96 20.7 0 9.13-2.74 15.33-2.73 6.2-7.69 9.38-4.95 3.17-11.69 3.17-4.25 0-7.47-1.12-3.22-1.13-5.52-3.03-2.29-1.9-3.81-4.15h-.58q.14 1.9.36 4.59t.22 4.69v21.97h-8.15v-77.44h6.69l1.07 7.91h.39q1.56-2.44 3.81-4.47t5.49-3.22q3.25-1.2 7.69-1.2m-1.41 6.84q-5.57 0-8.96 2.15-3.4 2.14-4.96 6.42-1.56 4.27-1.66 10.71v1.57q0 6.78 1.49 11.47t4.93 7.13 9.26 2.44q4.98 0 8.3-2.68 3.32-2.69 4.95-7.5 1.64-4.81 1.64-11.06 0-9.47-3.69-15.06-3.68-5.59-11.3-5.59m72.07 33.01q0 5.12-2.57 8.61-2.56 3.49-7.32 5.25t-11.35 1.76q-5.62 0-9.72-.88t-7.18-2.49v-7.47q3.27 1.61 7.82 2.93 4.54 1.32 9.27 1.32 6.94 0 10.06-2.25 3.13-2.24 3.13-6.1 0-2.2-1.25-3.88-1.24-1.69-4.17-3.27-2.93-1.59-8.11-3.5-5.13-1.95-8.86-3.88-3.74-1.93-5.76-4.71-2.03-2.78-2.03-7.23 0-6.78 5.49-10.42 5.5-3.64 14.43-3.64 4.84 0 9.06.95 4.22.96 7.89 2.57l-2.74 6.49q-3.32-1.41-7.08-2.39t-7.66-.98q-5.62 0-8.62 1.86-3.01 1.85-3.01 5.08 0 2.49 1.4 4.1 1.39 1.61 4.46 3.02 3.08 1.42 8.11 3.33 5.03 1.85 8.69 3.83t5.64 4.78q1.98 2.81 1.98 7.21"/><path fill="#4b91f1" d="M1049.55 498.87c-53.96.104-97.67 43.814-97.774 97.773 0 34.1 29.388 64.108 58.59 82.088v21.7c0 3.1 1.364 6.014 3.72 7.936l16.12 12.834-6.324 8.804a9.92 9.92 0 0 0 .186 12.586l7.254 10.168-7.378 9.238a10.15 10.15 0 0 0 0 12.586l7.13 8.866-7.13 8.99c-2.914 3.72-2.914 8.928 0 12.586l7.13 8.928-7.006 8.494c-3.1 3.782-3.1 9.3.186 13.02l25.978 29.636c1.86 2.17 4.588 3.41 7.44 3.472h4.96a9.85 9.85 0 0 0 7.192-3.1l15.748-16.244a10.106 10.106 0 0 0-14.508-14.012l-10.602 11.036-15.438-17.608 6.696-8.06.806-1.488.434-.806a12.4 12.4 0 0 0 .93-4.092 12.4 12.4 0 0 0-1.364-5.146l-.682-1.364-7.13-8.99 7.13-8.99c2.914-3.72 2.914-8.866 0-12.524l-7.13-8.928 7.13-8.928a10.14 10.14 0 0 0 .31-12.152l-7.936-11.036 7.936-11.036c3.1-4.34 2.294-10.416-1.922-13.702l-19.716-15.81v-22.63c0-3.596-1.922-6.944-5.084-8.742-24.676-14.074-53.568-40.176-53.568-67.58 2.027-41.416 36.196-73.947 77.655-73.947s75.628 32.537 77.655 73.947c0 27.342-28.892 53.506-53.692 67.58-3.1 1.798-5.084 5.146-5.084 8.742v120.28a10.106 10.106 0 0 0 20.15 0V678.731c29.326-17.98 58.776-48.05 58.776-82.088-.136-53.934-43.84-97.613-97.774-97.712"/></g><path fill="transparent" stroke="transparent" stroke-width="2.013" d="M645.796 187.5h708.408v1125H645.796z"/></g></svg>